# xmcd
#
# Track frame offsets:
#	150
#	13174
#	32675
#	53228
#	67854
#	89265
#	106661
#	132892
#	153406
#	174505
#	187418
#	212168
#	227439
#	247908
#	262575
#
# Disc length: 3713 seconds
#
# Revision: 0
# Processed by: cddbd v1.5.1PL0 Copyright (c) Steve Scherf et al.
# Submitted via: EasyCDDAExtractor 8.2.4.1
#
DISCID=bb0e7f0f
DTITLE=Рояль галерея
DYEAR=1900
DGENRE=
TTITLE0=Рояль галерея
TTITLE1=Рояль галерея
TTITLE2=Рояль галерея
TTITLE3=Рояль галерея
TTITLE4=Рояль галерея
TTITLE5=Рояль галерея
TTITLE6=Рояль галерея
TTITLE7=Рояль галерея
TTITLE8=Рояль галерея
TTITLE9=Рояль галерея
TTITLE10=Рояль галерея
TTITLE11=Рояль галерея
TTITLE12=Рояль галерея
TTITLE13=Рояль галерея
TTITLE14=Рояль галерея
EXTD=
EXTT0=
EXTT1=
EXTT2=
EXTT3=
EXTT4=
EXTT5=
EXTT6=
EXTT7=
EXTT8=
EXTT9=
EXTT10=
EXTT11=
EXTT12=
EXTT13=
EXTT14=
PLAYORDER=
